<svg width="223" height="422" viewBox="0 0 223 422" fill="none" xmlns="http://www.w3.org/2000/svg">
<path d="M111.3 413.887C92.6333 413.887 76.0667 409.803 61.6 401.637C47.1333 393.47 35.7 382.27 27.3 368.037C18.9 353.57 14.7 337.237 14.7 319.037C14.7 300.603 18.9 284.27 27.3 270.037C35.7 255.803 47.1333 244.72 61.6 236.787C76.0667 228.62 92.6333 224.537 111.3 224.537C129.733 224.537 146.183 228.62 160.65 236.787C175.35 244.72 186.783 255.803 194.95 270.037C203.35 284.037 207.55 300.37 207.55 319.037C207.55 337.47 203.35 353.803 194.95 368.037C186.783 382.27 175.35 393.47 160.65 401.637C146.183 409.803 129.733 413.887 111.3 413.887ZM111.3 384.487C123.2 384.487 133.817 381.803 143.15 376.437C152.717 371.07 160.183 363.487 165.55 353.687C170.917 343.653 173.6 332.103 173.6 319.037C173.6 305.737 170.917 294.303 165.55 284.737C160.183 274.937 152.717 267.353 143.15 261.987C133.817 256.62 123.2 253.937 111.3 253.937C99.4 253.937 88.7833 256.62 79.45 261.987C70.1167 267.353 62.65 274.937 57.05 284.737C51.45 294.303 48.65 305.737 48.65 319.037C48.65 332.103 51.45 343.653 57.05 353.687C62.65 363.487 70.1167 371.07 79.45 376.437C88.7833 381.803 99.4 384.487 111.3 384.487Z" fill="#555C6B"/>
<path d="M108.5 351.6C93.3 351.6 78.6 349.7 64.4 345.9C50.4 342.3 38.7 336.8 29.3 329.4L47.9 295.8C54.7 301.4 63.3 305.8 73.7 309C84.3 312.4 94.7 314.1 104.9 314.1C121.5 314.1 133.5 310.4 140.9 303C148.5 295.6 152.3 284.6 152.3 270V245.7L155.3 205.2L154.7 164.4V129.6H199.1V264C199.1 294 191.3 316.1 175.7 330.3C160.1 344.5 137.7 351.6 108.5 351.6ZM101.3 283.2C86.3 283.2 72.7 280 60.5 273.6C48.5 267 38.8 257.9 31.4 246.3C24.2 234.5 20.6 220.8 20.6 205.2C20.6 189.4 24.2 175.7 31.4 164.1C38.8 152.3 48.5 143.2 60.5 136.8C72.7 130.4 86.3 127.2 101.3 127.2C114.9 127.2 126.9 130 137.3 135.6C147.7 141 155.8 149.5 161.6 161.1C167.4 172.5 170.3 187.2 170.3 205.2C170.3 223 167.4 237.7 161.6 249.3C155.8 260.7 147.7 269.2 137.3 274.8C126.9 280.4 114.9 283.2 101.3 283.2ZM110.6 244.8C118.8 244.8 126.1 243.2 132.5 240C138.9 236.6 143.9 231.9 147.5 225.9C151.1 219.9 152.9 213 152.9 205.2C152.9 197.2 151.1 190.3 147.5 184.5C143.9 178.5 138.9 173.9 132.5 170.7C126.1 167.3 118.8 165.6 110.6 165.6C102.4 165.6 95.1 167.3 88.7 170.7C82.3 173.9 77.2 178.5 73.4 184.5C69.8 190.3 68 197.2 68 205.2C68 213 69.8 219.9 73.4 225.9C77.2 231.9 82.3 236.6 88.7 240C95.1 243.2 102.4 244.8 110.6 244.8Z" fill="#1E1E1E"/>
</svg>
